# xmcd CD database file
#
# Track frame offsets:
#	150
#	23872
#	46825
#	63330
#	84612
#	102472
#	122590
#	153402
#	174432
#	195660
#
# Disc length: 3000 seconds
#
# Revision: 0
# Processed by: cddbd v1.5PL3 Copyright (c) Steve Scherf et al.
# Submitted via: CDex 1.51
#
DISCID=7b0bb60a
DTITLE=ゆう - てんのみかん
DYEAR=2004
DGENRE=Rock
TTITLE0=蓮
TTITLE1=終末
TTITLE2=黒蜜
TTITLE3=蜜月
TTITLE4=戦場のチェリー
TTITLE5=胡麻擂り
TTITLE6=甘い水
TTITLE7=葉月
TTITLE8=天邪鬼
TTITLE9=小豆
EXTD=YEAR: 2004
EXTT0=
EXTT1=
EXTT2=
EXTT3=
EXTT4=
EXTT5=
EXTT6=
EXTT7=
EXTT8=
EXTT9=
PLAYORDER=
